<svg xmlns="http://www.w3.org/2000/svg" fill="none" height="107" viewBox="0 0 85 107" width="85"><g fill="#17191e"><path d="m27.5893 91.1365c-4.8338-4.4187-6.245-13.703-4.231-20.4293 3.492 4.2408 8.3305 5.5842 13.3422 6.3425 7.7369 1.1702 15.3353.7325 22.5226-2.8038.8222-.4049 1.5821-.9432 2.4805-1.4885.6744 1.9566.8499 3.9318.6143 5.9422-.5727 4.8961-3.0093 8.6782-6.8847 11.5452-1.5497 1.1468-3.1895 2.1719-4.79 3.2531-4.917 3.3234-6.2473 7.2201-4.3997 12.8881.0439.139.0832.277.1825.614-2.5105-1.124-4.3443-2.76-5.7416-4.911-1.4758-2.2697-2.1779-4.7809-2.2148-7.4981-.0185-1.3223-.0185-2.6564-.1963-3.96-.4342-3.1782-1.9262-4.6012-4.7369-4.6831-2.8846-.0842-5.1664 1.6991-5.7715 4.5076-.0462.2153-.1132.4283-.1802.6787z"/><path d="m0 69.5866s14.3139-6.9729 28.6678-6.9729l10.8223-33.4933c.4052-1.6197 1.5882-2.7205 2.9238-2.7205s2.5186 1.1008 2.9238 2.7205l10.8224 33.4933c17 0 28.6677 6.9729 28.6677 6.9729s-24.3133-66.23427-24.3608-66.36716c-.6978-1.95824-1.8759-3.21944-3.4641-3.21944h-29.1755c-1.5882 0-2.7187 1.2612-3.464 3.21944-.0526.13039-24.3634 66.36716-24.3634 66.36716z"/></g></svg>
